#!OML:ASF X:\2005_08_12_Meinard\c3d\meinard.ASF
:FULLY-SPECIFIED
:DEGREES
274
root 1.1996 16.7582 -3.73744 -16.4563 -69.9264 0.270839
lowerback 37.5139 -3.99586 -3.66694
upperback 4.39857 -7.52725 -2.81513
thorax -13.5982 -3.42505 2.18582
lowerneck -11.5907 -10.1615 -9.19419
upperneck -1.81704 -12.9278 13.0696
head 2.79935 -6.16145 4.54685
rclavicle 6.36111e-014 0
rhumerus 23.2295 5.86316 4.69005
rradius 31.4187
rwrist -32.22
rhand -23.5973 -11.9504
rfingers 7.12502
rthumb 2.86629 -41.9109
lclavicle 6.36111e-014 0
lhumerus 39.6563 -38.08 61.0658
lradius 116.486
lwrist 27.2101
lhand -2.35786 -19.5097
lfingers 7.12502
lthumb 23.3301 9.09651
rfemur -1.7304 -6.00295 15.0905
rtibia 38.931
rfoot -19.0231 8.1567
rtoes -13.7046
lfemur 14.6447 -4.96123 -7.21404
ltibia 25.7999
lfoot -14.7588 11.3308
ltoes -32.8259
275
root 1.16729 16.7666 -3.777 -16.6245 -69.8144 0.571959
lowerback 37.5362 -4.02737 -3.69487
upperback 4.40432 -7.58639 -2.86089
thorax -13.6012 -3.4503 2.1772
lowerneck -11.4221 -10.15 -9.19943
upperneck -1.96448 -12.9184 13.1644
head 2.73606 -6.16468 4.58782
rclavicle -9.64106e-014 -1.11319e-014
rhumerus 23.2524 6.57116 5.759
rradius 31.3883
rwrist -33.601
rhand -20.6867 -10.9162
rfingers 7.12502
rthumb 5.67685 -40.8202
lclavicle -9.64106e-014 -1.11319e-014
lhumerus 39.7119 -38.0827 60.9775
lradius 116.422
lwrist 27.18
lhand -2.44722 -19.547
lfingers 7.12502
lthumb 23.2444 9.07012
rfemur -1.7542 -6.04773 15.167
rtibia 38.891
rfoot -19.1 8.02002
rtoes -13.6099
lfemur 14.6206 -4.96502 -7.29451
ltibia 25.6654
lfoot -14.4578 12.1127
ltoes -32.8489
276
root 1.13524 16.776 -3.81589 -16.6595 -69.7245 0.746434
lowerback 37.5478 -4.06169 -3.703
upperback 4.40035 -7.63455 -2.87207
thorax -13.6092 -3.47035 2.19078
lowerneck -11.229 -10.1329 -9.23835
upperneck -2.13119 -12.8955 13.2422
head 2.66244 -6.16269 4.63173
rclavicle -7.67309e-014 6.36111e-014
rhumerus 23.3179 7.30891 6.90132
rradius 31.3119
rwrist -34.5974
rhand -17.1684 -9.7079
rfingers 7.12502
rthumb 9.07284 -39.4928
lclavicle -7.67309e-014 6.36111e-014
lhumerus 39.7196 -38.0628 60.9332
lradius 116.356
lwrist 27.1504
lhand -2.48331 -19.6178
lfingers 7.12502
lthumb 23.2098 9.00371
rfemur -1.78355 -6.06528 15.2989
rtibia 38.8299
rfoot -19.1609 7.87906
rtoes -13.5307
lfemur 14.5823 -4.97066 -7.32078
ltibia 25.5343
lfoot -14.192 12.8799
ltoes -32.7687
277
root 1.10491 16.785 -3.85336 -16.7194 -69.6313 0.927143
lowerback 37.5716 -4.0993 -3.67977
upperback 4.41173 -7.68004 -2.91352
thorax -13.6123 -3.49204 2.15469
lowerneck -10.9931 -10.1283 -9.27698
upperneck -2.33702 -12.8937 13.3879
head 2.57834 -6.17269 4.69662
rclavicle -1.74931e-014 4.77083e-015
rhumerus 23.3569 8.03772 8.03792
rradius 31.1859
rwrist -35.2907
rhand -13.1823 -8.35084
rfingers 7.12502
rthumb 12.9175 -37.931
lclavicle -1.74931e-014 4.77083e-015
lhumerus 39.8158 -38.0695 60.8574
lradius 116.261
lwrist 27.1057
lhand -2.49262 -19.68
lfingers 7.12502
lthumb 23.2008 8.94261
rfemur -1.78881 -6.08762 15.4215
rtibia 38.7601
rfoot -19.2037 7.74507
rtoes -13.3091
lfemur 14.5524 -4.97252 -7.364
ltibia 25.4141
lfoot -13.935 13.636
ltoes -32.7078
278
root 1.07492 16.7956 -3.89044 -16.8217 -69.5317 1.15063
lowerback 37.6079 -4.12925 -3.69573
upperback 4.41781 -7.72936 -2.93579
thorax -13.6185 -3.51293 2.16182
lowerneck -10.792 -10.1222 -9.31269
upperneck -2.52083 -12.8854 13.4682
head 2.49998 -6.17896 4.74027
rclavicle 5.4467e-014 -4.85035e-014
rhumerus 23.465 8.80022 9.2147
rradius 30.9911
rwrist -35.8133
rhand -8.98413 -6.90794
rfingers 7.12502
rthumb 16.9617 -36.1873
lclavicle 5.4467e-014 -4.85035e-014
lhumerus 39.8772 -38.053 60.8116
lradius 116.194
lwrist 27.05
lhand -2.47072 -19.7638
lfingers 7.12502
lthumb 23.2218 8.85611
rfemur -1.7856 -6.10508 15.5234
rtibia 38.6618
rfoot -19.2245 7.58587
rtoes -13.1735
lfemur 14.5096 -5.00082 -7.43697
ltibia 25.3221
lfoot -13.7062 14.3659
ltoes -32.4883
279
root 1.04626 16.8058 -3.9257 -16.8601 -69.4446 1.32101
lowerback 37.625 -4.17079 -3.70499
upperback 4.43133 -7.78717 -2.94509
thorax -13.6073 -3.53882 2.18141
lowerneck -10.6285 -10.1133 -9.36946
upperneck -2.68716 -12.8704 13.5654
head 2.43475 -6.17986 4.79074
rclavicle -1.09332e-014 -1.90833e-014
rhumerus 23.6256 9.49695 10.3511
rradius 30.7848
rwrist -36.2102
rhand -4.7867 -5.47571
rfingers 7.12502
rthumb 20.9983 -34.359
lclavicle -1.09332e-014 -1.90833e-014
lhumerus 39.9521 -37.9934 60.6928
lradius 116.148
lwrist 26.9877
lhand -2.51451 -19.8151
lfingers 7.12502
lthumb 23.1798 8.81015
rfemur -1.79491 -6.12319 15.6363
rtibia 38.5584
rfoot -19.2484 7.45226
rtoes -13.0489
lfemur 14.4332 -4.98136 -7.47815
ltibia 25.2443
lfoot -13.508 15.045
ltoes -32.3809
280
root 1.01773 16.816 -3.95989 -16.8776 -69.3782 1.4508
lowerback 37.6631 -4.20118 -3.67709
upperback 4.43619 -7.81955 -2.9678
thorax -13.6217 -3.55383 2.15878
lowerneck -10.4097 -10.1114 -9.40336
upperneck -2.87487 -12.8699 13.6661
head 2.35498 -6.19062 4.84044
rclavicle -2.18663e-015 7.15625e-015
rhumerus 23.7468 10.2605 11.4728
rradius 30.5653
rwrist -36.6928
rhand -0.957295 -4.09427
rfingers 7.12502
rthumb 24.6731 -32.5236
lclavicle -2.18663e-015 7.15625e-015
lhumerus 40.029 -37.9779 60.5832
lradius 116.094
lwrist 26.9072
lhand -2.49344 -19.9057
lfingers 7.12502
lthumb 23.2001 8.71702
rfemur -1.78029 -6.11092 15.774
rtibia 38.4394
rfoot -19.2381 7.30565
rtoes -12.7812
lfemur 14.3696 -4.8956 -7.47006
ltibia 25.18
lfoot -13.39 15.6303
ltoes -32.1762
